<?xml version="1.0" standalone="no"?>
<!DOCTYPE svg PUBLIC "-//W3C//DTD SVG 20010904//EN"
 "http://www.w3.org/TR/2001/REC-SVG-20010904/DTD/svg10.dtd">
<svg version="1.0" xmlns="http://www.w3.org/2000/svg"
 width="512.000000pt" height="512.000000pt" viewBox="0 0 512.000000 512.000000"
 preserveAspectRatio="xMidYMid meet">
<metadata>
Created by potrace 1.11, written by Peter Selinger 2001-2013
</metadata>
<g transform="translate(0.000000,512.000000) scale(0.100000,-0.100000)"
fill="#000000" stroke="none">
<path d="M3064 4233 c-77 -24 -200 -64 -274 -88 -74 -24 -216 -69 -315 -100
-99 -31 -198 -63 -220 -70 -22 -8 -141 -46 -265 -85 -387 -123 -601 -191 -725
-231 l-119 -39 -36 25 c-19 13 -66 47 -104 75 -88 64 -105 64 -295 4 -80 -25
-204 -63 -276 -85 -210 -65 -203 -61 -211 -131 -5 -35 0 -56 20 -98 14 -30 26
-57 26 -61 0 -4 -38 -19 -85 -34 -47 -16 -93 -33 -102 -40 -20 -15 -33 -107
-20 -132 6 -10 28 -39 49 -65 l38 -46 -42 -24 c-43 -23 -43 -24 -46 -85 l-3
-62 202 -253 c112 -138 208 -259 215 -267 8 -9 84 -104 170 -211 87 -107 295
-366 464 -575 168 -209 327 -407 354 -440 26 -33 56 -69 65 -80 9 -11 53 -66
98 -122 119 -146 152 -165 228 -129 22 10 105 50 185 89 80 38 186 89 235 112
86 41 157 74 490 235 83 40 197 95 255 122 58 28 157 75 220 105 63 31 169 81
235 113 66 32 183 88 260 125 142 69 284 137 500 240 66 31 176 84 245 117
119 58 316 152 426 204 114 54 175 123 168 192 -1 15 -2 33 -3 40 -1 8 -99
110 -218 229 -1267 1254 -1558 1540 -1580 1552 -43 22 -65 20 -209 -26z"/>
</g>
</svg>
