<svg version="1" xmlns="http://www.w3.org/2000/svg" width="682.667" height="682.667" viewBox="0 0 512 512"><path d="M306.4 88.7c-7.7 2.4-20 6.4-27.4 8.8-7.4 2.4-21.6 6.9-31.5 10-9.9 3.1-19.8 6.3-22 7-2.2.8-14.1 4.6-26.5 8.5-38.7 12.3-60.1 19.1-72.5 23.1l-11.9 3.9-3.6-2.5c-1.9-1.3-6.6-4.7-10.4-7.5-8.8-6.4-10.5-6.4-29.5-.4-8 2.5-20.4 6.3-27.6 8.5-21 6.5-20.3 6.1-21.1 13.1-.5 3.5 0 5.6 2 9.8 1.4 3 2.6 5.7 2.6 6.1 0 .4-3.8 1.9-8.5 3.4-4.7 1.6-9.3 3.3-10.2 4-2 1.5-3.3 10.7-2 13.2.6 1 2.8 3.9 4.9 6.5l3.8 4.6-4.2 2.4c-4.3 2.3-4.3 2.4-4.6 8.5l-.3 6.2 20.2 25.3c11.2 13.8 20.8 25.9 21.5 26.7.8.9 8.4 10.4 17 21.1 8.7 10.7 29.5 36.6 46.4 57.5 16.8 20.9 32.7 40.7 35.4 44 2.6 3.3 5.6 6.9 6.5 8 .9 1.1 5.3 6.6 9.8 12.2 11.9 14.6 15.2 16.5 22.8 12.9 2.2-1 10.5-5 18.5-8.9 8-3.8 18.6-8.9 23.5-11.2 8.6-4.1 15.7-7.4 49-23.5 8.3-4 19.7-9.5 25.5-12.2 5.8-2.8 15.7-7.5 22-10.5 6.3-3.1 16.9-8.1 23.5-11.3 6.6-3.2 18.3-8.8 26-12.5 14.2-6.9 28.4-13.7 50-24 6.6-3.1 17.6-8.4 24.5-11.7 11.9-5.8 31.6-15.2 42.6-20.4 11.4-5.4 17.5-12.3 16.8-19.2-.1-1.5-.2-3.3-.3-4-.1-.8-9.9-11-21.8-22.9-126.7-125.4-155.8-154-158-155.2-4.3-2.2-6.5-2-20.9 2.6z"/></svg>